<?xml version="1.0" encoding="UTF-8"?>
<svg id="Lager_2" data-name="Lager 2" xmlns="http://www.w3.org/2000/svg" viewBox="0 0 243.15 94.46">
  <defs>
    <style>
      .cls-1, .cls-2, .cls-3 {
        stroke-width: 0px;
      }

      .cls-2 {
        fill: #1d1d1b;
      }

      .cls-3 {
        fill: #fff;
      }
    </style>
  </defs>
  <g id="Lager_2-2" data-name="Lager 2">
    <g>
      <g>
        <g>
          <path class="cls-2" d="m95.51,32.78c0,20.45-12.24,28.59-32.69,28.59s-43.53-8.14-43.53-28.59S42.37,1,62.82,1s32.69,11.33,32.69,31.78Z"/>
          <path class="cls-2" d="m62.82,62.37c-22.16,0-44.53-9.15-44.53-29.59S40.93,0,62.82,0s33.69,11.95,33.69,32.78c0,19.63-11.33,29.59-33.69,29.59Zm0-60.37c-26.62,0-42.53,15.65-42.53,30.78,0,19.06,21.36,27.59,42.53,27.59s31.69-9.02,31.69-27.59c0-19.56-11.55-30.78-31.69-30.78Z"/>
        </g>
        <g>
          <path class="cls-2" d="m113.19,32.78c0,20.45,12.24,28.59,32.69,28.59s43.53-8.14,43.53-28.59c0-20.45-23.08-31.78-43.53-31.78-20.45,0-32.69,11.33-32.69,31.78Z"/>
          <path class="cls-2" d="m145.88,62.37c-22.35,0-33.69-9.96-33.69-29.59C112.19,11.95,124.47,0,145.88,0s44.53,12.26,44.53,32.78-22.36,29.59-44.53,29.59Zm0-60.37c-20.14,0-31.69,11.22-31.69,30.78s10.37,27.59,31.69,27.59,42.53-8.53,42.53-27.59c0-15.13-15.91-30.78-42.53-30.78Z"/>
        </g>
        <g>
          <path class="cls-2" d="m93.01,17.85s3.42-1.94,11.41-1.94,11.54,1.94,11.54,1.94"/>
          <path class="cls-2" d="m114.76,20.05s-3.25-1.64-10.34-1.64-10.17,1.62-10.2,1.63l-2.44-4.36c.41-.23,4.24-2.27,12.64-2.27s12.32,2.02,12.74,2.25l-2.4,4.39Z"/>
        </g>
        <ellipse class="cls-3" cx="80.22" cy="19.41" rx="4.95" ry="8.9" transform="translate(5.31 54.06) rotate(-38.43)"/>
        <ellipse class="cls-3" cx="165.12" cy="19.41" rx="4.95" ry="8.9" transform="translate(23.7 106.83) rotate(-38.43)"/>
      </g>
      <g>
        <path class="cls-1" d="m0,93.71v-35.45h21.9v5.6H6v9.4h14.4v5.45H6v9.4h15.9v5.6H0Z"/>
        <path class="cls-1" d="m31.75,81.51c0,4.9,3.15,7.65,6.8,7.65s5.55-2.65,6.1-4.5l5.1,1.85c-1.15,3.8-4.8,7.95-11.2,7.95-7.15,0-12.6-5.55-12.6-12.95s5.45-12.9,12.45-12.9c6.55,0,10.15,4.1,11.15,8l-5.2,1.9c-.55-2.15-2.2-4.55-5.9-4.55s-6.7,2.65-6.7,7.55Z"/>
        <path class="cls-1" d="m78,81.51c0,7.5-5.35,12.95-12.65,12.95s-12.6-5.45-12.6-12.95,5.35-12.9,12.6-12.9,12.65,5.45,12.65,12.9Zm-5.85,0c0-5.05-3.2-7.65-6.8-7.65s-6.8,2.6-6.8,7.65,3.25,7.75,6.8,7.75,6.8-2.65,6.8-7.75Z"/>
        <path class="cls-1" d="m102,68.26c-.35-2.2-2.2-5.45-6.95-5.45-3.6,0-6.1,2.4-6.1,5.1,0,2.25,1.4,3.95,4.15,4.55l5.1,1.05c6.25,1.25,9.6,5.2,9.6,10.2,0,5.5-4.45,10.75-12.55,10.75-9,0-13.15-5.8-13.7-10.9l5.6-1.6c.35,3.7,3,7.1,8.1,7.1,4.25,0,6.45-2.15,6.45-4.9,0-2.3-1.7-4.15-4.75-4.8l-5-1.05c-5.4-1.1-9-4.65-9-9.95,0-5.95,5.45-10.85,12.05-10.85,8.35,0,11.6,5.1,12.4,9.05l-5.4,1.7Z"/>
        <path class="cls-1" d="m119.1,93.71h-5.8v-36.2h5.8v14.2c1.65-2.15,4.4-3.05,6.95-3.05,6,0,8.9,4.3,8.9,9.65v15.4h-5.8v-14.4c0-3-1.35-5.4-5-5.4-3.2,0-4.95,2.4-5.05,5.5v14.3Z"/>
        <path class="cls-1" d="m147.85,79.76l6.25-.95c1.4-.2,1.8-.9,1.8-1.75,0-2.05-1.4-3.7-4.6-3.7s-4.75,1.95-5,4.4l-5.3-1.2c.45-4.2,4.25-7.95,10.25-7.95,7.5,0,10.35,4.25,10.35,9.1v12.1c0,2.2.25,3.65.3,3.9h-5.4c-.05-.15-.25-1.15-.25-3.1-1.15,1.85-3.55,3.85-7.5,3.85-5.1,0-8.25-3.5-8.25-7.35,0-4.35,3.2-6.75,7.35-7.35Zm8.05,3.85v-1.1l-6.35.95c-1.8.3-3.25,1.3-3.25,3.3,0,1.65,1.25,3.15,3.55,3.15,3.25,0,6.05-1.55,6.05-6.3Z"/>
        <path class="cls-1" d="m191.05,89.26c0,2.2.2,4.05.25,4.45h-5.55c-.1-.55-.25-2.15-.25-3.15-1.15,2.05-3.7,3.75-7.15,3.75-7,0-11.7-5.5-11.7-12.85s4.75-12.75,11.6-12.75c4.25,0,6.4,1.95,7.15,3.5v-14.7h5.65v31.75Zm-12.05-.05c3.8,0,6.45-3.15,6.45-7.8s-2.6-7.55-6.4-7.55-6.6,2.95-6.6,7.6,2.6,7.75,6.55,7.75Z"/>
        <path class="cls-1" d="m220.2,86.76c-1.3,4.25-5.15,7.7-11,7.7-6.6,0-12.45-4.8-12.45-13.05,0-7.7,5.7-12.8,11.85-12.8,7.5,0,11.9,4.95,11.9,12.65,0,.95-.1,1.75-.15,1.85h-17.8c.15,3.7,3.05,6.35,6.65,6.35s5.3-1.85,6.1-4.25l4.9,1.55Zm-5.55-7.9c-.1-2.85-2-5.4-6-5.4-3.65,0-5.75,2.8-5.95,5.4h11.95Z"/>
        <path class="cls-1" d="m228.95,85.71c.2,2.2,1.85,4.15,4.95,4.15,2.4,0,3.65-1.3,3.65-2.8,0-1.3-.9-2.3-2.85-2.7l-3.6-.8c-4.3-.95-6.55-3.75-6.55-7.1,0-4.25,3.9-7.85,8.95-7.85,6.8,0,9,4.4,9.4,6.8l-4.9,1.4c-.2-1.4-1.25-3.65-4.5-3.65-2.05,0-3.5,1.3-3.5,2.8,0,1.3.95,2.25,2.45,2.55l3.7.75c4.6,1,7,3.8,7,7.4s-3,7.8-9.2,7.8c-7.05,0-9.75-4.6-10.05-7.35l5.05-1.4Z"/>
      </g>
    </g>
  </g>
</svg>